<?xml version="1.0" encoding="UTF-8" standalone="no"?>
<svg
   xmlns:dc="http://purl.org/dc/elements/1.1/"
   xmlns:cc="http://creativecommons.org/ns#"
   xmlns:rdf="http://www.w3.org/1999/02/22-rdf-syntax-ns#"
   xmlns:svg="http://www.w3.org/2000/svg"
   xmlns="http://www.w3.org/2000/svg"
   xmlns:sodipodi="http://sodipodi.sourceforge.net/DTD/sodipodi-0.dtd"
   xmlns:inkscape="http://www.inkscape.org/namespaces/inkscape"
   version="1.1"
   id="svg833"
   xml:space="preserve"
   width="445.68741"
   height="600"
   viewBox="0 0 445.68741 599.99999"
   sodipodi:docname="Logo Stade Niçois Rugby - 2020.svg"
   inkscape:version="1.0.1 (c497b03c, 2020-09-10)"><sodipodi:namedview
     pagecolor="#ffffff"
     bordercolor="#666666"
     borderopacity="1"
     objecttolerance="10"
     gridtolerance="10"
     guidetolerance="10"
     inkscape:pageopacity="0"
     inkscape:pageshadow="2"
     inkscape:window-width="1920"
     inkscape:window-height="1080"
     id="namedview875"
     showgrid="false"
     inkscape:zoom="1.2416667"
     inkscape:cx="211.35731"
     inkscape:cy="279.25174"
     inkscape:window-x="0"
     inkscape:window-y="0"
     inkscape:window-maximized="0"
     inkscape:current-layer="svg833" /><metadata
     id="metadata839"><rdf:RDF><cc:Work
         rdf:about=""><dc:format>image/svg+xml</dc:format><dc:type
           rdf:resource="http://purl.org/dc/dcmitype/StillImage" /><dc:title /></cc:Work></rdf:RDF></metadata><defs
     id="defs837" /><g
     id="g841"
     transform="matrix(1.4058742,0,0,-1.4058742,-102.47297,207.27321)"><g
       id="g2216"><path
         d="m 389.90713,-124.49723 c 0,-108.09271 -160.09384,-154.84981 -160.09384,-154.84981 0,0 -156.924141,46.32847 -156.924141,154.84981 v 233.20869 c 45.624681,1.68275 112.595911,4.21216 156.686011,26.62234 43.10585,-22.41018 128.69314,-25.47934 160.33197,-26.62234 z"
         style="fill:#e3271c;fill-opacity:1;fill-rule:nonzero;stroke:none;stroke-width:5.29166"
         id="path1813" /><path
         d="m 382.53479,-123.98765 c 0,-103.30376 -152.72256,-148.30403 -152.72256,-148.30403 0,0 -149.335902,44.59281 -149.335902,148.30403 v 226.01203 c 0,0 105.224632,3.43958 149.415272,25.18301 43.15348,-21.74343 152.64319,-25.18301 152.64319,-25.18301 z"
         style="fill:#000000;fill-opacity:1;fill-rule:nonzero;stroke:none;stroke-width:5.29166"
         id="path1817" /><path
         d="m 249.92741,119.19212 c -4.12749,-10.30286 -36.98869,-10.42986 -40.98919,-0.0741 -0.62441,1.59808 -9.03815,24.16171 -9.03815,24.16171 8.74182,-8.49311 28.39504,-3.75708 29.6862,4.15395 1.53988,-8.51428 21.02376,-12.26077 29.68621,-3.74649 0,0 -8.28145,-21.79634 -9.34507,-24.49509"
         style="fill:#e3271c;fill-opacity:1;fill-rule:nonzero;stroke:none;stroke-width:5.29166"
         id="path1821" /><path
         d="m 373.81678,-123.21242 c 0,-96.45106 -144.00191,-141.0862 -144.00191,-141.0862 0,0 -140.69462,42.74601 -140.69462,141.0862 V 95.184918 c 0,0 72.24702,3.339037 117.3002,14.795482 2.08491,-2.88925 11.42469,-5.57212 24.18817,-5.57212 12.16552,0 19.52093,3.07445 21.5053,5.61974 C 298.1196,98.328163 373.81678,95.184918 373.81678,95.184918 Z"
         style="fill:#ffffff;fill-opacity:1;fill-rule:nonzero;stroke:none;stroke-width:5.29166"
         id="path1825" /><path
         d="m 367.99067,-122.97641 c 0,-89.38141 -138.17579,-133.80488 -138.17579,-133.80488 0,0 -133.688467,39.75623 -133.688467,133.80488 V 88.383022 c 0,0 68.320607,3.090328 111.987377,14.176358 1.98966,-2.767542 11.56756,-5.302247 23.77013,-5.302247 11.63635,0 19.22459,2.910417 21.12959,5.349867 43.56093,-11.13365 114.97716,-14.223978 114.97716,-14.223978 z"
         style="fill:#000000;fill-opacity:1;fill-rule:nonzero;stroke:none;stroke-width:5.29166"
         id="path1829" /><path
         d="m 244.41403,122.67879 c -2.62466,-5.52449 -26.86046,-6.1542 -29.22054,-0.0582 -0.4445,1.15358 -3.98462,9.78957 -3.98462,9.78957 5.29166,-3.32845 18.00752,1.06362 18.70072,5.36045 0.70909,-4.32328 12.54653,-8.64657 18.70602,-5.06412 0,0 -3.43429,-8.08565 -4.20158,-10.02769"
         style="fill:#000000;fill-opacity:1;fill-rule:nonzero;stroke:none;stroke-width:5.29166"
         id="path1833" /><path
         d="m 237.09197,124.96743 c -0.84667,-1.57162 -13.93294,-1.86796 -14.91719,-0.005 -0.23283,0.43921 -1.20649,2.10079 -1.20649,2.10079 2.03199,-0.58209 8.60423,1.0742 8.89527,2.37066 0.29634,-1.35466 6.27062,-2.97391 8.47724,-2.38654 z"
         style="fill:#ffffff;fill-opacity:1;fill-rule:nonzero;stroke:none;stroke-width:5.29166"
         id="path1837" /></g><g
       id="g2204"><path
         d="m 164.81479,-143.50223 c -2.07433,4.17512 -6.81566,16.92802 -6.07482,23.47909 -2.71463,-11.12307 -2.83633,-18.96001 -1.59279,-26.10904 18.24564,-27.08801 74.89284,-21.30951 115.61216,7.64644 -40.83573,-20.40993 -89.58779,-20.95497 -107.94455,-5.01649"
         style="fill:#ffffff;fill-opacity:1;fill-rule:nonzero;stroke:none;stroke-width:5.29166"
         id="path1841" /><path
         d="m 200.56365,-133.76769 c -4.47145,-1.75683 -36.74528,-11.18127 -38.5074,-2.93158 -2.51883,-10.47219 9.0699,-16.79572 23.24626,-15.97022 -13.16565,3.64066 4.95828,12.81639 15.26114,18.9018"
         style="fill:#ffffff;fill-opacity:1;fill-rule:nonzero;stroke:none;stroke-width:5.29166"
         id="path1845" /><path
         d="m 198.56181,-57.499013 c 34.09416,23.823047 92.11719,22.706507 109.3045,7.334239 -18.51551,23.558464 -69.63823,25.722753 -109.3045,-7.334239"
         style="fill:#ffffff;fill-opacity:1;fill-rule:nonzero;stroke:none;stroke-width:5.29166"
         id="path1849" /><path
         d="m 253.75593,-81.409373 c -0.73554,3.614203 -4.1857,2.666996 -11.17069,1.799164 5.55624,-0.481541 9.5144,-0.777874 11.17069,-1.799164"
         style="fill:#ffffff;fill-opacity:1;fill-rule:nonzero;stroke:none;stroke-width:5.29166"
         id="path1853" /><path
         d="m 144.11805,-100.34452 c 6.87916,-3.07445 10.09119,-3.83116 18.36735,-3.95816 6.2124,-0.0953 11.45644,1.2065 19.20343,1.83091 7.61469,0.60325 16.19776,-0.47095 24.31517,-6.13303 -10.48278,1.81504 -21.21426,-1.57691 -26.58529,-2.45004 -5.31812,-0.86254 -11.4194,-1.73566 -17.9546,-0.59795 -7.76287,1.34937 -14.15519,6.26003 -17.34606,11.30827"
         style="fill:#e3271c;fill-opacity:1;fill-rule:nonzero;stroke:none;stroke-width:5.29166"
         id="path1857" /><path
         d="m 341.19688,-126.52976 c -11.55698,-2.20133 -16.92802,-4.42912 -28.87658,-2.65112 -8.97465,1.3335 -17.88052,4.52966 -28.67021,7.1014 -10.61507,2.52413 -21.23013,3.13796 -35.93036,-1.96849 16.04431,-0.20109 27.52721,-5.28108 34.91965,-7.6147 11.97503,-3.8047 21.20368,-5.54566 27.52721,-6.14361 10.50924,-0.98425 24.17759,4.39207 31.03029,11.27652"
         style="fill:#e3271c;fill-opacity:1;fill-rule:nonzero;stroke:none;stroke-width:5.29166"
         id="path1861" /><path
         d="m 357.1597,-108.50849 c -12.39306,-5.05353 -23.21451,-2.84162 -36.49128,-0.41804 -12.92223,2.36008 -26.04554,5.89491 -37.06807,7.2919 -15.95964,2.053168 -35.17894,-2.21191 -46.55072,-15.40401 17.96518,9.10165 33.88249,5.86845 43.87843,4.34445 8.24441,-1.24354 30.58579,-8.28674 41.34373,-8.58836 12.44599,-0.34925 30.4535,6.04836 34.88791,12.77406"
         style="fill:#e3271c;fill-opacity:1;fill-rule:nonzero;stroke:none;stroke-width:5.29166"
         id="path1865" /><path
         d="m 123.21018,-76.189152 c 8.2444,-6.92149 16.34064,-8.392571 29.42162,-9.09107 11.19715,-0.587374 21.62701,0.772583 31.09908,0.280458 13.7054,-0.724957 27.43725,-4.614326 34.37991,-16.864516 -13.23444,9.948318 -24.87609,6.974406 -33.51208,7.244281 -7.11199,0.211666 -25.62221,-1.709206 -34.65507,-0.365125 -12.33486,1.852081 -23.10338,9.673152 -26.73346,18.795972"
         style="fill:#e3271c;fill-opacity:1;fill-rule:nonzero;stroke:none;stroke-width:5.29166"
         id="path1869" /><path
         d="m 107.20027,-46.517234 c 11.51994,-11.668107 19.31455,-13.954104 35.63403,-16.033726 16.72164,-2.121955 34.49632,-2.053163 42.14806,-2.428871 17.14498,-0.836082 31.68116,-7.646447 42.87302,-27.394917 -14.57852,14.245145 -33.32157,15.37756 -42.23273,15.414601 -10.03827,0.03704 -33.98832,-1.02129 -46.15385,2.418289 -12.31369,3.471328 -28.29979,9.514402 -32.26853,28.024624"
         style="fill:#e3271c;fill-opacity:1;fill-rule:nonzero;stroke:none;stroke-width:5.29166"
         id="path1873" /><path
         d="m 223.47071,-68.624196 c 5.88432,-2.016122 9.47207,-1.322915 16.99681,-0.492124 3.27553,0.359833 8.08565,1.576914 12.9381,1.862664 3.59833,0.216958 11.01195,-1.285873 12.81111,-7.84753 5.69382,-0.402166 7.6729,-1.523998 10.69973,-2.577038 4.05871,-1.407581 6.80508,-7.762863 6.61987,-15.319352 -1.74096,2.508246 -6.90562,2.497663 -9.71549,2.508246 -16.79572,0.03704 -26.13021,-1.635122 -37.81419,-11.38765 1.59808,11.38765 14.99127,19.007639 39.40698,17.197892 -2.18016,4.926534 -13.91706,3.693577 -14.59968,3.693577 -1.42346,3.376079 -2.55058,6.069533 -7.75228,6.016616 -5.05883,-0.05821 -9.92716,-0.931332 -13.55194,-0.650874 -3.28083,0.238125 -10.80557,1.24354 -16.03902,6.995573"
         style="fill:#e3271c;fill-opacity:1;fill-rule:nonzero;stroke:none;stroke-width:5.29166"
         id="path1877" /></g><g
       id="g2185"><path
         d="m 154.29127,62.539619 c -4.78895,2.127247 -7.64645,2.952746 -10.45103,2.952746 -2.94745,0 -4.83657,-1.063624 -4.83657,-2.70933 0,-4.984742 16.78514,-3.582453 16.78514,-15.097102 0,-6.334115 -5.31812,-10.011818 -12.67352,-10.011818 -5.75733,0 -8.60953,1.497539 -11.90094,3.19087 v 7.111989 c 4.74132,-3.143245 7.64644,-4.254493 11.27123,-4.254493 3.14854,0 4.84187,1.111248 4.84187,3.047995 0,5.418659 -16.79044,3.434287 -16.79044,15.287602 0,5.704408 4.93712,9.477361 12.57828,9.477361 3.6777,0 7.01674,-0.772582 11.17598,-2.561163 z"
         style="fill:#ffffff;fill-opacity:1;fill-rule:nonzero;stroke:none;stroke-width:5.29166"
         id="path1881" /><path
         d="M 199.66829,65.055261 H 187.71972 V 38.110135 h -8.22323 v 26.945126 h -11.94857 v 6.048366 h 32.12037 z"
         style="fill:#ffffff;fill-opacity:1;fill-rule:nonzero;stroke:none;stroke-width:5.29166"
         id="path1885" /><path
         d="m 247.126,38.109076 h -8.85295 l -2.70932,6.529907 h -14.75315 l -2.4712,-6.529907 h -8.70478 l 13.30323,32.993492 h 9.53028 z m -19.30397,25.108921 -4.83658,-12.821689 h 10.15999 z"
         style="fill:#ffffff;fill-opacity:1;fill-rule:nonzero;stroke:none;stroke-width:5.29166"
         id="path1889" /><path
         d="m 273.9743,71.102581 c 12.04382,0 18.24035,-7.49828 18.24035,-16.547017 0,-9.482652 -6.00074,-16.446475 -19.1611,-16.446475 h -13.64189 v 32.993492 z m -6.33941,-26.945126 h 5.37104 c 8.27615,0 10.74206,5.609158 10.74206,10.445734 0,5.662075 -3.04799,10.451026 -10.83731,10.451026 h -5.27579 z"
         style="fill:#ffffff;fill-opacity:1;fill-rule:nonzero;stroke:none;stroke-width:5.29166"
         id="path1901" /><path
         d="m 331.20358,38.109076 h -24.33105 v 32.993492 h 23.99238 v -6.048366 h -15.76914 v -6.916198 h 15.04419 v -6.048366 h -15.04419 v -7.932196 h 16.10781 z"
         style="fill:#ffffff;fill-opacity:1;fill-rule:nonzero;stroke:none;stroke-width:5.29166"
         id="path1905" /><path
         d="m 165.56302,-12.434731 h -6.9162 L 140.40647,8.7054455 V -12.434731 h -8.22323 v 32.993492 h 7.5459 L 157.33978,0.38695803 V 20.558761 h 8.22324 z"
         style="fill:#ffffff;fill-opacity:1;fill-rule:nonzero;stroke:none;stroke-width:5.29166"
         id="path1909" /><path
         d="m 186.31585,-12.432082 h -8.22324 v 32.993491 h 8.22324 z"
         style="fill:#ffffff;fill-opacity:1;fill-rule:nonzero;stroke:none;stroke-width:5.29164"
         id="path1911" /><path
         d="m 229.51696,-9.5798687 c -4.59845,-2.3706633 -7.78932,-3.2914113 -13.68952,-3.2914113 l -0.38629,-0.867832 c 2.03199,-0.724958 2.99508,-1.936748 2.99508,-3.534828 0,-2.317747 -1.78858,-4.011078 -5.2705,-4.011078 -1.78858,0 -2.70932,0.142875 -3.58245,0.433916 v 2.465913 c 3.09562,-0.09525 3.6777,0.534458 3.6777,1.49754 0,0.534457 -0.38629,1.354664 -1.98437,1.354664 l 1.69333,2.952746 c -10.44573,1.354664 -15.62626,8.8529448 -15.62626,16.5470166 0,8.8053204 7.21253,17.0285574 19.83842,17.0285574 4.59316,0 8.70478,-0.968373 11.94857,-2.90512 v -7.350114 c -3.63008,2.031997 -7.30778,3.386661 -11.37178,3.386661 -7.01144,0 -11.94856,-4.1645351 -11.94856,-10.0171096 0,-5.9001995 4.88949,-10.1123598 11.75806,-10.1123598 4.30212,0 7.20724,1.3546646 11.94857,3.6300778 z"
         style="fill:#ffffff;fill-opacity:1;fill-rule:nonzero;stroke:none;stroke-width:5.29166"
         id="path1923" /><path
         d="m 258.39724,-12.869693 c -12.09673,0 -18.91768,8.5142788 -18.91768,16.9333078 0,7.9798212 6.48228,16.9333082 18.91768,16.9333082 12.4354,0 18.86476,-9.001112 18.86476,-16.9333082 0,-8.4666539 -7.01144,-16.9333078 -18.86476,-16.9333078 m 0,26.992751 c -6.29178,0 -10.45103,-4.011077 -10.45103,-10.0594432 0,-6.0483659 4.15925,-10.0647348 10.45103,-10.0647348 6.23887,0 10.4034,4.0163689 10.4034,10.0647348 0,6.0483662 -4.16453,10.0594432 -10.4034,10.0594432"
         style="fill:#ffffff;fill-opacity:1;fill-rule:nonzero;stroke:none;stroke-width:5.29166"
         id="path1927" /><path
         d="m 296.56755,-12.432082 h -8.22323 v 32.993491 h 8.22323 z"
         style="fill:#ffffff;fill-opacity:1;fill-rule:nonzero;stroke:none;stroke-width:5.29164"
         id="path1929" /><path
         d="m 331.15596,11.995811 c -4.78895,2.127247 -7.64116,2.952746 -10.45103,2.952746 -2.94745,0 -4.83657,-1.063624 -4.83657,-2.70933 0,-4.9847422 16.78514,-3.5824526 16.78514,-15.097102 0,-6.3341154 -5.31812,-10.011818 -12.67352,-10.011818 -5.75733,0 -8.60953,1.497539 -11.90094,3.19087 v 7.1119893 c 4.74132,-3.1432453 7.64644,-4.2544936 11.27123,-4.2544936 3.14324,0 4.84187,1.1112483 4.84187,3.0479954 0,5.4186585 -16.79044,3.43428647 -16.79044,15.2876019 0,5.704408 4.93712,9.482652 12.57828,9.482652 3.6777,0 7.01674,-0.777873 11.17598,-2.566454 z"
         style="fill:#ffffff;fill-opacity:1;fill-rule:nonzero;stroke:none;stroke-width:5.29166"
         id="path1941" /></g><g
       id="g2192"><path
         d="m 170.17735,-181.71065 c 4.61962,-0.96837 6.70453,-4.64078 6.00074,-8.00628 -0.51858,-2.4712 -2.19075,-4.04812 -5.0112,-4.69899 2.06375,-1.63513 2.18016,-4.55083 3.96345,-11.81098 l -6.16478,1.29116 c -1.40229,5.31812 -1.38641,9.82661 -4.41853,10.46161 l -1.61925,0.33867 -1.91029,-9.13341 -5.60916,1.16946 4.70958,22.49484 z m -6.38703,-8.30261 2.96862,-0.61913 c 1.55045,-0.32808 3.20674,0.0159 3.60891,1.92617 0.34925,1.68274 -0.56092,2.76753 -2.67229,3.21203 l -2.83633,0.59267 z"
         style="fill:#ffffff;fill-opacity:1;fill-rule:nonzero;stroke:none;stroke-width:5.29166"
         id="path1945" /><path
         d="m 211.09934,-187.20074 -1.26471,-12.98044 c -0.73554,-7.57765 -6.1542,-9.68903 -12.42481,-9.08049 -6.64103,0.64559 -11.13894,4.19629 -10.45103,11.27653 l 1.27,13.0069 5.69912,-0.55034 -1.28058,-13.14977 c -0.3175,-3.28612 1.87324,-5.49274 5.15936,-5.81553 3.01625,-0.29104 5.95312,1.01071 6.34999,5.10116 l 1.24354,12.7476 z"
         style="fill:#ffffff;fill-opacity:1;fill-rule:nonzero;stroke:none;stroke-width:5.29166"
         id="path1949" /><path
         d="m 243.99282,-194.13335 c -2.93687,1.397 -5.7732,2.09021 -8.60424,2.07433 -6.23357,-0.037 -8.40315,-3.88937 -8.38198,-7.2972 0.0212,-4.07457 3.23849,-6.75215 7.9904,-6.7257 1.41816,0.0106 2.12196,0.14817 3.8047,0.8308 l -0.0159,2.69874 -3.33375,-0.0212 -0.0265,4.21216 9.06462,0.0529 0.0529,-9.40328 c -1.7092,-1.79387 -5.94782,-3.13266 -9.65198,-3.15382 -8.02216,-0.0476 -13.74244,4.80482 -13.78477,11.67869 -0.0371,7.01144 5.59328,11.8586 13.78477,11.90623 3.43428,0.0212 6.77332,-0.73554 9.07519,-1.83092 z"
         style="fill:#ffffff;fill-opacity:1;fill-rule:nonzero;stroke:none;stroke-width:5.29166"
         id="path1953" /><path
         d="m 265.27375,-185.83232 c 5.39749,0.55562 7.90045,-2.40241 8.16503,-4.9477 0.19579,-1.91029 -0.83079,-3.7465 -2.64583,-4.8842 3.33904,-0.49742 5.19112,-2.68287 5.46628,-5.36045 0.26988,-2.61408 -0.71437,-6.84741 -7.38715,-7.54062 l -11.12836,-1.14829 -2.36008,22.85997 z m -3.25437,-9.5144 2.9845,0.30691 c 2.07962,0.21696 2.78341,1.57692 2.6617,2.78342 -0.12171,1.16945 -1.09008,2.32303 -3.16441,2.11137 l -2.9845,-0.30692 z m 0.98954,-9.58849 3.21733,0.33338 c 3.15383,0.32808 4.17512,1.27529 3.96874,3.25437 -0.17462,1.67745 -1.74095,2.42887 -3.75178,2.22249 l -3.98991,-0.41275 z"
         style="fill:#ffffff;fill-opacity:1;fill-rule:nonzero;stroke:none;stroke-width:5.29166"
         id="path1957" /><path
         d="m 293.62116,-193.91957 -11.38765,10.10178 6.7892,1.42874 6.36586,-6.02719 3.429,8.09094 6.75745,1.42346 -6.34999,-13.83769 2.2172,-10.51982 -5.60916,-1.18004 z"
         style="fill:#ffffff;fill-opacity:1;fill-rule:nonzero;stroke:none;stroke-width:5.29166"
         id="path1961" /></g></g></svg>
